<svg xmlns="http://www.w3.org/2000/svg" width="100" height="101" viewBox="0 0 100 101" fill="none"><rect y="0.0300293" width="100" height="100" rx="50" fill="#FE9600"></rect><g clip-path="url(#clip0_64_1245)"><g clip-path="url(#clip1_64_1245)"><g clip-path="url(#clip2_64_1245)"><path fill-rule="evenodd" clip-rule="evenodd" d="M55.7076 26.4325C55.5701 26.4935 55.3521 26.652 55.2229 26.7847C54.7143 27.308 54.7073 27.3689 54.7073 31.2626V34.9037L42.6793 34.933L30.6514 34.9623L30.2513 35.2006C30.0312 35.3318 29.7069 35.6047 29.5304 35.8073C28.8622 36.5743 28.901 35.5533 28.901 52.3918V67.6441H27.196C25.5191 67.6441 25.487 67.6485 25.2456 67.9147L25 68.1852L25.0022 71.2491C25.0042 73.9777 25.0244 74.3613 25.1871 74.7561C25.3967 75.2645 25.8788 75.8315 26.3359 76.1071C26.6301 76.2846 28.0333 76.299 48.1057 76.3306C64.1834 76.3559 69.697 76.3321 70.1037 76.2357C70.5495 76.13 70.7378 76.0057 71.1573 75.5406C71.4794 75.1836 71.7132 74.8064 71.7899 74.5204C71.8718 74.2148 71.9115 73.1238 71.9115 71.1776V68.2885L71.6191 67.9663L71.3268 67.6441H69.6687H68.0106V56.4563V45.2684H70.9965C73.9343 45.2684 73.9879 45.2643 74.3223 45.0182C75.0516 44.4813 75.017 44.9645 74.9882 35.7144C74.9626 27.5395 74.9595 27.4239 74.756 27.1236C74.6426 26.9562 74.4255 26.717 74.2736 26.592C73.9999 26.3668 73.9163 26.3645 64.9775 26.3432C59.1213 26.3294 55.8699 26.3607 55.7076 26.4325ZM56.3077 35.7781V43.4828L57.2166 43.5214C58.0683 43.5575 58.1407 43.5794 58.3669 43.8692C58.5735 44.1339 58.6083 44.2922 58.6083 44.9693V45.7602L59.6103 44.66L60.6124 43.5599L67.0121 43.5299L73.4119 43.5V35.7866V28.0732H64.8598H56.3077V35.7781ZM60.169 32.6218C59.4719 33.0624 59.4085 33.3294 59.4085 35.8274C59.4085 37.8759 59.4227 38.0465 59.6269 38.447C59.7661 38.7199 59.9953 38.9552 60.2587 39.0957C60.6398 39.299 60.8763 39.3162 63.3009 39.3162C65.5308 39.3162 65.9824 39.2888 66.2756 39.1353C66.6696 38.9293 67.0624 38.4119 67.1635 37.9659C67.2012 37.7992 67.2531 37.6628 67.2788 37.6628C67.3046 37.6628 67.6007 37.8984 67.9368 38.1864C69.3637 39.4085 69.6365 39.5186 70.0656 39.0456L70.3111 38.7751V35.8441V32.9131L70.0656 32.6426C69.6587 32.1941 69.37 32.2832 68.262 33.1993L67.2631 34.0251L67.1348 33.6168C67.0642 33.3923 66.9061 33.0883 66.7834 32.9414C66.3384 32.4087 66.1082 32.3719 63.2376 32.3738C60.6499 32.3755 60.5454 32.384 60.169 32.6218ZM61.0088 35.8441V37.5526H63.3094H65.61V35.8441V34.1356H63.3094H61.0088V35.8441ZM68.1736 35.4918L67.7864 35.8528L68.1236 36.1318C68.7262 36.6307 68.7107 36.6381 68.7107 35.8506C68.7107 35.453 68.677 35.1284 68.6357 35.1293C68.5944 35.1302 68.3865 35.2933 68.1736 35.4918ZM30.9515 36.7981C30.4815 37.0814 30.5013 36.3885 30.5013 52.4541V67.6441H48.4558H66.4102V56.4563V45.2684H65.6615H64.9129L64.8863 55.3636L64.8598 65.4588L64.5791 65.7248L64.2985 65.9908H48.3956H32.4927L32.2473 65.7202L32.0017 65.4497V52.2298C32.0017 39.3781 32.007 39.0027 32.193 38.7498L32.3841 38.4895L43.5207 38.4344L54.6573 38.3793L54.6865 37.525L54.7157 36.6708L42.9336 36.6741C34.5985 36.6765 31.093 36.7128 30.9515 36.7981ZM33.6021 45.7644V51.3308H35.1403H36.6784L36.7209 50.3523C36.7564 49.5344 36.815 49.2585 37.078 48.6714C37.251 48.285 37.6172 47.7259 37.8917 47.4288L38.3906 46.8887L38.1395 46.5259C36.9591 44.8205 37.5161 42.2896 39.2821 41.334C40.0526 40.917 41.2052 40.8967 41.9278 41.2875C42.9124 41.8198 43.6425 42.9498 43.7703 44.1392C43.8433 44.8178 43.6224 45.6959 43.2034 46.393L42.8944 46.9071L43.3495 47.3694C43.6121 47.636 43.9422 48.1393 44.1297 48.5587C44.4117 49.1894 44.4594 49.4213 44.4895 50.3083L44.5241 51.3308H46.0649H47.6056V45.7644V40.198H40.6038H33.6021V45.7644ZM49.2059 45.7644V51.3308H56.2593H63.3126L63.286 48.3271L63.2594 45.3235L62.3144 45.2915L61.3692 45.2596L59.8138 46.9615C58.9581 47.8977 58.1535 48.6978 58.0257 48.7396C57.7082 48.8434 57.2577 48.618 57.1209 48.2869C57.0562 48.1306 57.0079 47.4264 57.0079 46.641V45.2684H56.3725C55.8785 45.2684 55.6615 45.2127 55.3973 45.0182C54.7848 44.5673 54.7076 44.2407 54.7075 42.0994L54.7073 40.198H51.9566H49.2059V45.7644ZM40.0487 42.8822C39.0286 43.3919 38.8154 44.8835 39.6474 45.6884C40.5096 46.5227 41.771 46.0965 42.1079 44.8572C42.4519 43.592 41.1423 42.3358 40.0487 42.8822ZM39.8922 48.0659C38.9124 48.4517 38.3978 49.2559 38.3245 50.5158L38.277 51.3308H40.5906H42.9044V50.5548C42.9044 49.6248 42.6985 49.1062 42.1084 48.5496C41.4657 47.9433 40.6534 47.7661 39.8922 48.0659ZM33.6021 58.6608V64.2271H35.1386H36.6752L36.7257 63.251C36.7875 62.0546 37.1615 61.1192 37.8969 60.321L38.378 59.7988L38.0438 59.2516C37.6463 58.6007 37.5044 58.0918 37.5037 57.3147C37.5024 56.0629 38.2311 54.7991 39.2821 54.2304C39.7684 53.9671 39.9729 53.922 40.6538 53.927C41.3195 53.932 41.5413 53.9827 41.9729 54.2285C43.742 55.2361 44.2999 57.5677 43.1952 59.337L42.9026 59.8057L43.4098 60.3646C44.1552 61.186 44.4442 61.9477 44.4883 63.2076L44.5241 64.2271H46.0649H47.6056V58.6608V53.0944H40.6038H33.6021V58.6608ZM49.2059 58.6608V64.2271H50.7563H52.3067L52.3091 63.5934C52.3142 62.2951 52.68 61.2851 53.4716 60.3838L53.9913 59.7921L53.6965 59.3437C52.5717 57.6325 53.1787 55.1568 54.96 54.1909C55.3621 53.9728 55.6109 53.9211 56.2577 53.9211C56.9878 53.9211 57.1149 53.9557 57.708 54.3156C59.4074 55.3466 59.9195 57.6694 58.8172 59.3461L58.524 59.7921L59.0438 60.3838C59.8347 61.2842 60.2086 62.3461 60.2086 63.691V64.2271H61.759H63.3094V58.6608V53.0944H56.2577H49.2059V58.6608ZM40.0537 55.7852C38.8903 56.355 38.7896 58.1229 39.882 58.7994C40.5594 59.2191 41.3204 59.0641 41.8244 58.404C42.4391 57.599 42.187 56.3661 41.3078 55.8776C40.8018 55.5964 40.4866 55.5731 40.0537 55.7852ZM55.6525 55.7786C54.6293 56.2899 54.4193 57.78 55.2565 58.59C56.4236 59.7193 58.2137 58.4086 57.6979 56.8023C57.414 55.9177 56.3949 55.4077 55.6525 55.7786ZM39.8922 60.9557C38.9026 61.3634 38.3977 62.1546 38.3245 63.4121L38.277 64.2271H40.5906H42.9044V63.4501C42.9044 62.6115 42.7655 62.1861 42.3179 61.6543C41.7401 60.9679 40.6349 60.6497 39.8922 60.9557ZM55.5075 60.9542C55.3149 61.0211 54.9293 61.3263 54.6504 61.6323C54.1016 62.2345 53.9071 62.7824 53.9071 63.7248V64.2271H56.2577H58.6083V63.7248C58.6083 62.8637 58.4158 62.2763 57.9442 61.6982C57.2945 60.9019 56.4237 60.636 55.5075 60.9542ZM26.6004 71.7102C26.6004 73.813 26.617 74.0353 26.7916 74.273L26.9828 74.5332L48.1719 74.5646C59.8259 74.5819 69.507 74.5673 69.6858 74.5321C70.2493 74.4212 70.3111 74.1331 70.3111 71.6178V69.4077H48.4558H26.6004V71.7102Z" fill="white"></path></g></g></g><defs><clipPath id="clip0_64_1245"><rect width="50" height="50" fill="white" transform="translate(25 26.34)"></rect></clipPath><clipPath id="clip1_64_1245"><rect width="50" height="50" fill="white" transform="translate(25 26.34)"></rect></clipPath><clipPath id="clip2_64_1245"><rect width="50" height="50" fill="white" transform="translate(25 26.34)"></rect></clipPath></defs></svg>